<?xml version="1.0" encoding="UTF-8" standalone="no"?><!DOCTYPE svg PUBLIC "-//W3C//DTD SVG 1.1//EN" "http://www.w3.org/Graphics/SVG/1.1/DTD/svg11.dtd"><svg width="100%" height="100%" viewBox="0 0 23 23" version="1.1" xmlns="http://www.w3.org/2000/svg" xmlns:xlink="http://www.w3.org/1999/xlink" xml:space="preserve" xmlns:serif="http://www.serif.com/" style="fill-rule:evenodd;clip-rule:evenodd;stroke-linejoin:round;stroke-miterlimit:2;"><path d="M10.676,11.958l-8.791,-8.791c-0.252,-0.253 -0.252,-0.663 0,-0.916c0.253,-0.252 0.663,-0.252 0.916,0l8.791,8.791l8.607,-8.607c0.253,-0.252 0.663,-0.252 0.916,0c0.252,0.253 0.252,0.663 -0,0.916l-8.607,8.607l7.691,7.691c0.253,0.253 0.253,0.663 -0,0.916c-0.253,0.252 -0.663,0.252 -0.916,-0l-7.691,-7.691l-7.875,7.875c-0.253,0.252 -0.663,0.252 -0.916,-0c-0.253,-0.253 -0.253,-0.663 0,-0.916l7.875,-7.875Z" style="fill:#fff;"/><path d="M9.262,11.958l-8.084,-8.084l-0.21,-0.258l-0.151,-0.288l-0.091,-0.305l-0.03,-0.314l0.03,-0.314l0.091,-0.305l0.151,-0.288l0.21,-0.258l0.258,-0.21l0.288,-0.152l0.306,-0.09l0.313,-0.03l0.314,0.03l0.306,0.09l0.287,0.152l0.258,0.21l8.084,8.084l7.9,-7.9l0.258,-0.21l0.287,-0.152l0.306,-0.09l0.314,-0.03l0.313,0.03l0.306,0.09l0.288,0.152l0.258,0.21l0.21,0.258l0.151,0.288l0.091,0.306l0.03,0.313l-0.03,0.314l-0.091,0.305l-0.151,0.288l-0.21,0.258l-7.9,7.9l6.984,6.984l0.21,0.258l0.152,0.288l0.09,0.305l0.03,0.314l-0.03,0.313l-0.09,0.306l-0.152,0.288l-0.21,0.258l-0.258,0.21l-0.288,0.152l-0.305,0.09l-0.314,0.03l-0.314,-0.03l-0.305,-0.09l-0.288,-0.152l-0.258,-0.21l-6.984,-6.984l-7.168,7.168l-0.258,0.21l-0.288,0.152l-0.305,0.09l-0.314,0.03l-0.314,-0.03l-0.305,-0.09l-0.288,-0.152l-0.258,-0.21l-0.21,-0.258l-0.152,-0.288l-0.09,-0.305l-0.03,-0.314l0.03,-0.314l0.09,-0.305l0.152,-0.288l0.21,-0.258l7.168,-7.168Z" style="fill:#fff;"/></svg>